<svg width="16" height="12" viewBox="0 0 16 12" fill="none" xmlns="http://www.w3.org/2000/svg">
<path d="M15.1888 0.0378418H0.811218C0.675654 0.0380007 0.54569 0.0919377 0.44985 0.187815C0.35401 0.283693 0.300124 0.413677 0.300018 0.549242V1.57804C0.300018 1.62544 0.351418 1.67984 0.393418 1.70184L7.95062 6.01844C7.96998 6.0295 7.99192 6.03523 8.01422 6.03504C8.03701 6.0351 8.05939 6.02903 8.07902 6.01744L15.4078 1.70604C15.449 1.68304 15.5582 1.62224 15.5992 1.59424C15.6488 1.56044 15.7 1.52984 15.7 1.46924V0.549042C15.6999 0.413512 15.6459 0.283579 15.5501 0.187745C15.4543 0.0919103 15.3243 0.0380006 15.1888 0.0378418Z" fill="#F78522"/>
<path d="M15.6362 3.12922C15.6165 3.118 15.5942 3.11217 15.5716 3.11231C15.5489 3.11245 15.5267 3.11856 15.5072 3.13002L11.3598 5.57022C11.3433 5.57985 11.3291 5.59308 11.3184 5.60892C11.3077 5.62477 11.3007 5.64282 11.2979 5.66174C11.2951 5.68067 11.2966 5.69998 11.3023 5.71824C11.308 5.7365 11.3177 5.75324 11.3308 5.76722L15.4788 10.2386C15.4907 10.2515 15.5051 10.2618 15.5212 10.2689C15.5373 10.2759 15.5547 10.2795 15.5722 10.2794C15.6061 10.2794 15.6386 10.2659 15.6625 10.2419C15.6865 10.218 15.6999 10.1855 15.7 10.1516V3.24022C15.7001 3.21774 15.6942 3.19563 15.683 3.17614C15.6718 3.15665 15.6557 3.14046 15.6362 3.12922Z" fill="#F78522"/>
<path d="M10.1646 6.38956C10.1449 6.36812 10.1185 6.35408 10.0897 6.34978C10.0609 6.34549 10.0315 6.3512 10.0064 6.36596L8.344 7.34416C8.2466 7.40044 8.13624 7.43041 8.02375 7.43115C7.91127 7.43189 7.80053 7.40336 7.7024 7.34836L6.2394 6.51256C6.21578 6.49911 6.18849 6.49352 6.16149 6.49661C6.13448 6.49971 6.10917 6.51131 6.0892 6.52976L0.533599 11.683C0.519035 11.6966 0.507852 11.7134 0.500943 11.7321C0.494034 11.7508 0.491589 11.7709 0.493804 11.7907C0.496018 11.8105 0.502831 11.8295 0.513698 11.8462C0.524566 11.8629 0.539188 11.8769 0.556399 11.887C0.642799 11.9378 0.726199 11.962 0.810999 11.962H15.0416C15.0665 11.962 15.0909 11.9547 15.1117 11.941C15.1325 11.9274 15.1488 11.9079 15.1586 11.885C15.1686 11.8622 15.1717 11.837 15.1675 11.8125C15.1633 11.788 15.152 11.7653 15.135 11.7472L10.1646 6.38956Z" fill="#F78522"/>
<path d="M4.8668 5.92028C4.88152 5.90668 4.89283 5.88981 4.89982 5.87103C4.90681 5.85224 4.90929 5.83208 4.90705 5.81217C4.90481 5.79225 4.89792 5.77314 4.88693 5.75638C4.87595 5.73962 4.86117 5.72568 4.8438 5.71568L0.490605 3.22928C0.471178 3.21825 0.449195 3.21252 0.426854 3.21265C0.404514 3.21278 0.3826 3.21877 0.363304 3.23003C0.344007 3.24129 0.328005 3.25742 0.316896 3.2768C0.305788 3.29618 0.299964 3.31814 0.300005 3.34048V9.86448C0.299864 9.8894 0.307033 9.91381 0.320624 9.9347C0.334215 9.95558 0.353631 9.97202 0.37647 9.98198C0.399309 9.99194 0.424568 9.99499 0.44912 9.99074C0.473672 9.98649 0.49644 9.97514 0.514605 9.95808L4.8668 5.92028Z" fill="#F78522"/>
</svg>
