<svg width="40" height="40" viewBox="0 0 40 40" fill="none" xmlns="http://www.w3.org/2000/svg">
<circle cx="20" cy="20" r="20" fill="white"/>
<path d="M28.3333 26.5495C28.3333 27.4957 28.062 28.3073 27.5195 28.9844C26.977 29.6615 26.3237 30 25.5599 30H14.4401C13.6762 30 13.023 29.6615 12.4804 28.9844C11.9379 28.3073 11.6666 27.4957 11.6666 26.5495C11.6666 25.8116 11.7035 25.115 11.7773 24.4596C11.8511 23.8043 11.9878 23.1445 12.1875 22.4805C12.3871 21.8164 12.641 21.2478 12.9492 20.7747C13.2573 20.3016 13.6653 19.9154 14.1731 19.6159C14.6809 19.3164 15.2647 19.1667 15.9244 19.1667C17.0616 20.2778 18.4201 20.8333 20 20.8333C21.5798 20.8333 22.9383 20.2778 24.0755 19.1667C24.7352 19.1667 25.319 19.3164 25.8268 19.6159C26.3346 19.9154 26.7426 20.3016 27.0507 20.7747C27.3589 21.2478 27.6128 21.8164 27.8125 22.4805C28.0121 23.1445 28.1488 23.8043 28.2226 24.4596C28.2964 25.115 28.3333 25.8116 28.3333 26.5495ZM25 15C25 16.3802 24.5117 17.5586 23.5351 18.5352C22.5586 19.5117 21.3802 20 20 20C18.6198 20 17.4414 19.5117 16.4648 18.5352C15.4882 17.5586 15 16.3802 15 15C15 13.6198 15.4882 12.4414 16.4648 11.4648C17.4414 10.4883 18.6198 10 20 10C21.3802 10 22.5586 10.4883 23.5351 11.4648C24.5117 12.4414 25 13.6198 25 15Z" fill="#0A473B"/>
</svg>
