<svg width="40" height="40" viewBox="0 0 40 40" fill="none" xmlns="http://www.w3.org/2000/svg">
<circle cx="20" cy="20" r="20" fill="#30BF2D"/>
<path d="M27.3309 13.2882C28.2619 14.2098 29.0764 15.3618 29.5419 16.5138C30.0073 17.6658 30.3564 19.0482 30.3564 20.3154C30.3564 22.1586 29.8909 23.7714 28.96 25.269C28.0291 26.7666 26.7491 28.0338 25.2364 28.9554C23.7237 29.877 21.9782 30.3378 20.1164 30.3378C18.3709 30.3378 16.7419 29.877 15.3455 29.0706L9.99277 30.453L11.5055 25.269C10.5746 23.7714 10.1091 22.0434 10.1091 20.3154C10.1091 18.5874 10.5746 16.8594 11.5055 15.3618C12.4364 13.8642 13.6 12.597 15.2291 11.6754C16.8582 10.7538 18.4873 10.293 20.2328 10.293C21.5128 10.293 22.7928 10.5234 24.0728 11.0994C25.3528 11.6754 26.2837 12.3666 27.3309 13.2882ZM20.1164 28.6098C21.6291 28.6098 23.0255 28.2642 24.3055 27.4578C25.5855 26.6514 26.6328 25.7298 27.4473 24.4626C28.2619 23.1954 28.6109 21.813 28.6109 20.3154C28.6109 19.2786 28.3782 18.2418 27.9128 17.205C27.4473 16.1682 26.8655 15.2466 26.0509 14.4402C25.2364 13.6338 24.3055 13.0578 23.3746 12.597C22.4437 12.1362 21.28 12.021 20.1164 12.021C18.6037 12.021 17.2073 12.3666 15.9273 13.173C14.6473 13.9794 13.7164 14.901 12.9019 16.1682C12.0873 17.4354 11.7382 18.8178 11.7382 20.3154C11.7382 21.9282 12.2037 23.4258 13.0182 24.693L13.2509 25.0386L12.4364 28.149L15.5782 27.3426L15.9273 27.573C17.2073 28.2642 18.6037 28.6098 20.1164 28.6098ZM24.7709 22.389L24.8873 22.5042C25.12 22.6194 25.2364 22.6194 25.2364 22.7346C25.2364 22.8498 25.2364 22.965 25.2364 23.1954C25.2364 23.4258 25.12 23.6562 25.0037 23.8866C24.8873 24.117 24.6546 24.3474 24.3055 24.693C23.9564 25.0386 23.6073 25.0386 23.3746 25.1538C22.9091 25.269 22.56 25.269 22.0946 25.1538C21.6291 25.0386 21.0473 24.8082 20.2328 24.5778C18.8364 23.7714 17.44 22.6194 16.16 20.7762L16.0437 20.661C15.3455 19.7394 14.9964 18.933 14.9964 18.1266C14.9964 17.3202 15.3455 16.629 15.8109 16.053C16.0437 15.8226 16.2764 15.7074 16.5091 15.7074H17.0909C17.2073 15.7074 17.3237 15.7074 17.44 15.8226C17.5564 15.9378 17.5564 15.9378 17.6728 16.1682L18.4873 18.0114C18.6037 18.2418 18.6037 18.357 18.4873 18.4722C18.3709 18.8178 18.1382 19.0482 17.9055 19.2786C17.7891 19.3938 17.6728 19.509 17.6728 19.509C17.6728 19.509 17.6728 19.6242 17.7891 19.7394C18.2546 20.5458 18.72 21.1218 19.3019 21.5826C19.7673 21.9282 20.3491 22.2738 21.1637 22.7346C21.3964 22.8498 21.6291 22.8498 21.7455 22.7346C22.0946 22.2738 22.4437 21.9282 22.56 21.6978C22.6764 21.5826 22.6764 21.4674 22.7928 21.4674C22.9091 21.4674 23.0255 21.4674 23.1419 21.4674C23.2582 21.6978 23.84 21.9282 24.7709 22.389Z" fill="white"/>
</svg>
