<svg width="24" height="24" viewBox="0 0 24 24" fill="none" xmlns="http://www.w3.org/2000/svg">
<g clip-path="url(#clip0_15_2)">
<path d="M12.003 0H11.997C5.3805 0 0 5.382 0 12C0 14.625 0.846 17.058 2.2845 19.0335L0.789 23.4915L5.4015 22.017C7.299 23.274 9.5625 24 12.003 24C18.6195 24 24 18.6165 24 12C24 5.3835 18.6195 0 12.003 0Z" fill="#4CAF50"/>
<path d="M18.9854 16.9455C18.6959 17.763 17.5469 18.441 16.6304 18.639C16.0034 18.7725 15.1844 18.879 12.4274 17.736C8.90095 16.275 6.62995 12.6915 6.45295 12.459C6.28345 12.2265 5.02795 10.5615 5.02795 8.8395C5.02795 7.1175 5.90245 6.279 6.25495 5.919C6.54445 5.6235 7.02295 5.4885 7.48195 5.4885C7.63045 5.4885 7.76395 5.496 7.88395 5.502C8.23645 5.517 8.41345 5.538 8.64595 6.0945C8.93545 6.792 9.64045 8.514 9.72445 8.691C9.80995 8.868 9.89545 9.108 9.77545 9.3405C9.66295 9.5805 9.56395 9.687 9.38695 9.891C9.20995 10.095 9.04195 10.251 8.86495 10.47C8.70295 10.6605 8.51995 10.8645 8.72395 11.217C8.92795 11.562 9.63295 12.7125 10.671 13.6365C12.0104 14.829 13.0964 15.21 13.4849 15.372C13.7744 15.492 14.1194 15.4635 14.3309 15.2385C14.5994 14.949 14.9309 14.469 15.2684 13.9965C15.5084 13.6575 15.8114 13.6155 16.1294 13.7355C16.4534 13.848 18.1679 14.6955 18.5204 14.871C18.8729 15.048 19.1054 15.132 19.1909 15.2805C19.2749 15.429 19.2749 16.1265 18.9854 16.9455Z" fill="#FAFAFA"/>
</g>
<defs>
<clipPath id="clip0_15_2">
<rect width="24" height="24" fill="white"/>
</clipPath>
</defs>
</svg>
